<svg width="100" height="22" xmlns="http://www.w3.org/2000/svg">
 <title>Bitbucket-blue</title>
 <defs>
  <linearGradient y2="0.78803" x2="0.46979" y1="0.13888" x1="1.08654" id="SVGID_1_">
   <stop stop-color="#0052cc" offset="0.18"/>
   <stop stop-color="#2684ff" offset="1"/>
  </linearGradient>
 </defs>
 <g>
  <title>Layer 1</title>
  <g stroke="null" id="Layer_2_1_">
   <g stroke="null" id="Blue">
    <path stroke="null" id="svg_1" fill="#253858" d="m27.17339,3.2655c2.43304,0 3.62012,1.59166 3.62012,4.16179c0,1.93086 -0.65731,3.09199 -2.00137,3.53556c1.76591,0.39139 2.63906,1.66993 2.63906,3.91391c0,2.54404 -1.295,4.27921 -3.96349,4.27921l-4.93475,0l0,-15.89047l4.64043,0zm-3.00205,2.07437l0,4.73583l2.78622,0c1.55008,0 2.18777,-0.93934 2.18777,-2.47881s-0.68674,-2.27007 -2.18777,-2.27007l-2.78622,0.01305zm0,6.67974l0,4.94457l3.34542,0c1.5697,0 2.27607,-0.75669 2.27607,-2.34834c0,-1.69603 -0.67693,-2.60927 -2.3055,-2.60927l-3.31599,0.01305zm9.92836,-9.60212c0.55921,-0.05219 1.04974,0.50881 1.08898,1.25245l0,0.1957c0,0.79583 -0.49053,1.44815 -1.08898,1.44815s-1.08898,-0.65232 -1.08898,-1.44815c-0.03924,-0.74364 0.38261,-1.39596 0.94182,-1.44815c0.04905,-0.01305 0.09811,-0.01305 0.14716,0zm-0.79466,4.6445l1.5697,0l0,12.09397l-1.5697,0l0,-12.09397zm7.53456,10.05874c0.33356,-0.01305 0.65731,-0.06523 0.98106,-0.1696l0,2.00914c-0.34337,0.13046 -0.69655,0.1957 -1.04974,0.1957c-1.95232,0 -2.89414,-1.52642 -2.89414,-3.7704l0,-6.39272l-1.47159,0l0,-1.93086l1.47159,0l0,-2.57013l1.52065,0l0,2.57013l2.42323,0l0,1.93086l-2.42323,0l0,6.35358c0,1.05676 0.47091,1.7743 1.44216,1.7743zm7.43646,2.27007c-1.32443,0 -2.34474,-0.79583 -2.89414,-2.37444l0,2.12656l-1.5697,0l0,-17.14292l1.57951,0l0,7.22768c0.57883,-1.59166 1.67762,-2.41358 3.07073,-2.41358c2.42323,0 3.63974,2.72669 3.63974,6.28834c-0.00981,3.41815 -1.27538,6.28834 -3.82615,6.28834zm-0.23546,-10.64583c-1.40292,0 -2.64887,1.18722 -2.64887,3.87477l0,0.96543c0,2.68755 1.14784,3.87477 2.48209,3.87477c1.76591,0 2.6783,-1.55252 2.6783,-4.35748c-0.01962,-2.89629 -0.89277,-4.35748 -2.51152,-4.35748zm5.69016,-1.68298l1.5697,0l0,7.31901c0,2.17874 0.65731,3.14417 2.14853,3.14417c1.45197,0 2.45266,-1.27854 2.45266,-3.73126l0,-6.73192l1.5697,0l0,12.09397l-1.5697,0l0,-1.98305c-0.56902,1.39596 -1.67762,2.25702 -2.87451,2.23093c-2.08966,0 -3.29637,-1.93086 -3.29637,-5.25768l0,-7.08417zm16.5211,11.78086c-0.5494,0.39139 -1.3833,0.54795 -2.2172,0.54795c-3.23751,0 -4.75815,-2.60927 -4.75815,-6.32748c0,-3.65298 1.51084,-6.26225 4.75815,-6.26225c0.74561,-0.02609 1.49122,0.1696 2.16815,0.60013l0,1.93086c-0.6475,-0.40444 -1.35387,-0.60013 -2.07004,-0.57404c-2.36436,0 -3.3258,1.98305 -3.3258,4.33139s0.98106,4.33139 3.36505,4.33139c0.70637,0.02609 1.40292,-0.11742 2.07004,-0.43053l0.00981,1.85258zm1.78553,0.31311l0,-17.15596l1.5697,0l0,10.72411l3.91444,-5.66212l2.04061,0l-4.27743,5.93609l4.45403,6.15788l-2.12891,0l-4.00274,-5.66212l0,5.66212l-1.5697,0zm12.88136,0.23483c-3.40429,0 -4.8955,-2.60927 -4.8955,-6.32748c0,-3.65298 1.53046,-6.26225 4.29706,-6.26225c2.80584,0 3.92425,2.59623 3.92425,6.26225l0,0.93934l-6.6418,0c0.21583,2.06132 1.21652,3.39205 3.36505,3.39205c0.94182,0 1.88364,-0.22179 2.7666,-0.65232l0,1.93086c-0.7358,0.5349 -1.88364,0.71755 -2.81565,0.71755zm-3.3258,-7.1494l5.07209,0c-0.0883,-2.24397 -0.85352,-3.53556 -2.42323,-3.53556c-1.658,-0.01305 -2.4919,1.42205 -2.65868,3.52252l0,0.01305l0.00981,0zm12.11613,4.87934c0.33356,-0.01305 0.65731,-0.06523 0.98106,-0.1696l0,2.00914c-0.34337,0.13046 -0.69655,0.1957 -1.04974,0.1957c-1.95232,0 -2.89414,-1.52642 -2.89414,-3.7704l0,-6.39272l-1.47159,0l0,-1.93086l1.47159,0l0,-2.57013l1.53046,0l0,2.57013l2.42323,0l0,1.93086l-2.42323,0l0,6.35358c-0.00981,1.05676 0.4611,1.7743 1.43235,1.7743z" class="st0"/>
    <path stroke="null" id="svg_2" fill="none" d="m8.11134,13.96351l2.69792,0l0.65731,-5.06199l-4.07141,0l0.71618,5.06199z" class="st1"/>
    <path stroke="null" id="svg_3" fill="#2684ff" d="m3.42186,3.72212c-0.23546,0 -0.42186,0.23483 -0.42186,0.54795c0,0.02609 0,0.06523 0.00981,0.09132l1.7561,14.16835c0.04905,0.35225 0.2747,0.62623 0.5494,0.62623l8.41752,0c0.20602,0 0.38261,-0.1957 0.41205,-0.45662l1.7561,-14.3249c0.03924,-0.30007 -0.11773,-0.58709 -0.34337,-0.62623c-0.01962,0 -0.04905,-0.01305 -0.06867,-0.01305l-12.06707,-0.01305zm7.3874,10.24139l-2.68811,0l-0.72599,-5.06199l4.07141,0l-0.65731,5.06199z" class="st2"/>
    <path stroke="null" id="svg_4" fill="url(#SVGID_1_)" d="m15.34177,8.90152l-3.8752,0l-0.6475,5.06199l-2.69792,0l-3.17864,5.0098c0.09811,0.11742 0.22564,0.18265 0.36299,0.18265l8.42733,0c0.20602,0 0.38261,-0.1957 0.41205,-0.45662l1.1969,-9.79782z" class="st3"/>
   </g>
  </g>
 </g>
</svg>